<svg width="512" height="288" viewBox="0 0 512 288" xmlns="http://www.w3.org/2000/svg" preserveAspectRatio="xMidYMid meet">
  <!-- Gradient background -->
  <defs>
    <linearGradient id="bgGradient" x1="0%" y1="0%" x2="100%" y2="100%">
      <stop offset="0%" style="stop-color:#00A4DC;stop-opacity:1" />
      <stop offset="100%" style="stop-color:#0077B6;stop-opacity:1" />
    </linearGradient>
    <filter id="shadow">
      <feDropShadow dx="0" dy="2" stdDeviation="4" flood-opacity="0.3"/>
    </filter>
  </defs>
  
  <!-- Background rectangle 16:9 -->
  <rect width="512" height="288" fill="url(#bgGradient)" rx="20" ry="20"/>
  
  <!-- Bell icon on the left side -->
  <g transform="translate(130, 144) scale(1.1)">
    <g transform="translate(-128, -128)">
      <g filter="url(#shadow)">
        <path d="M 128 65 
               C 100 65, 82 83, 82 105
               L 82 145
               C 82 152, 76 158, 65 163
               L 65 173
               L 191 173
               L 191 163
               C 180 158, 174 152, 174 145
               L 174 105
               C 174 83, 156 65, 128 65 Z" 
            fill="#FFFFFF" />
        
        <!-- Bell bottom curve -->
        <ellipse cx="128" cy="180" rx="15" ry="18" fill="#FFFFFF" />
      </g>
      
      <!-- Notification badge -->
      <circle cx="175" cy="80" r="22" fill="#FF4757" filter="url(#shadow)" />
      
      <!-- Media play icon inside badge -->
      <path d="M 168 72 L 168 88 L 183 80 Z" fill="#FFFFFF" />
      
      <!-- Sound wave lines -->
      <g opacity="0.9">
        <path d="M 185 100 Q 198 115, 185 130" 
              stroke="#FFFFFF" 
              stroke-width="7" 
              stroke-linecap="round" 
              fill="none" />
        <path d="M 200 90 Q 218 115, 200 140" 
              stroke="#FFFFFF" 
              stroke-width="7" 
              stroke-linecap="round" 
              fill="none" 
              opacity="0.7" />
      </g>
      
      <!-- Subtle highlight on bell -->
      <ellipse cx="110" cy="95" rx="20" ry="30" fill="#FFFFFF" opacity="0.2" />
    </g>
  </g>
  
  <!-- Text on the right -->
  <text x="310" y="135" font-family="Arial, sans-serif" font-size="56" font-weight="bold" fill="#FFFFFF" filter="url(#shadow)">
    Ntfy
  </text>
  <text x="310" y="185" font-family="Arial, sans-serif" font-size="42" fill="#FFFFFF" opacity="0.9">
    Notifier
  </text>
</svg>
